<svg width="128" height="45" viewBox="0 0 128 45" fill="none" xmlns="http://www.w3.org/2000/svg">
<path d="M2.66602 28.6299V13.235C2.66602 11.7185 3.84735 10.4864 5.30868 10.579C6.61135 10.6619 8.15002 10.8262 9.33268 11.148C10.7327 11.5306 12.394 12.3455 13.7087 13.0651C14.118 13.2903 14.554 13.445 14.9993 13.5334V34.4986C14.5913 34.4054 14.1974 34.2548 13.8287 34.0511C12.4953 33.3163 10.7753 32.4627 9.33268 32.0677C8.16335 31.7486 6.64468 31.5843 5.35268 31.5014C3.87402 31.4047 2.66602 30.1658 2.66602 28.6299ZM16.9993 34.4986C17.4074 34.4054 17.8013 34.2548 18.17 34.0511C19.5033 33.3163 21.2233 32.4627 22.666 32.0677C23.8353 31.7486 25.354 31.5843 26.646 31.5014C28.1247 31.4047 29.3327 30.1644 29.3327 28.6285V13.1466C29.3327 11.666 28.2047 10.4492 26.7754 10.5016C25.27 10.5569 23.3953 10.7171 21.9993 11.1508C20.7887 11.5251 19.3793 12.2779 18.2313 12.9671C17.8462 13.1972 17.4314 13.3693 16.9993 13.4781V34.4986Z" fill="#292929"/>
<path d="M46.3906 33.5H41.875V10.9531H45.8125L56.3438 25.6406H56.4688V10.9531H60.9844V33.5H57.0781L46.5312 18.7344H46.3906V33.5ZM74.9219 10.5625C81.5938 10.5625 85.7969 15.0469 85.7969 22.2344C85.7969 29.4062 81.5938 33.8906 74.9219 33.8906C68.2344 33.8906 64.0469 29.4062 64.0469 22.2344C64.0469 15.0469 68.2344 10.5625 74.9219 10.5625ZM74.9219 14.5C71.2344 14.5 68.8594 17.5 68.8594 22.2344C68.8594 26.9531 71.2188 29.9375 74.9219 29.9375C78.6094 29.9375 80.9688 26.9531 80.9688 22.2344C80.9688 17.5 78.6094 14.5 74.9219 14.5ZM99.8906 33.5H94.2031L86.625 10.9531H91.9062L97.0625 28.6406H97.1719L102.328 10.9531H107.469L99.8906 33.5ZM122.109 33.5L120.391 28.0312H112.469L110.75 33.5H105.906L113.734 10.9531H119.281L127.125 33.5H122.109ZM116.375 15.2656L113.484 24.5H119.375L116.484 15.2656H116.375Z" fill="#292929"/>
</svg>
